# xmcd CD database file
#
# Track frame offsets:
#	150
#	21808
#	45181
#	71053
#	84704
#	112057
#	124891
#	153437
#	173030
#	187266
#	229735
#	249611
#	265209
#
# Disc length: 3728 seconds
#
# Revision: 0
# Processed by: cddbd v1.5.2PL0 Copyright (c) Steve Scherf et al.
# Submitted via: jetAudio 7
#
DISCID=b30e8e0d
DTITLE=Celtic Spirits - Celtic Spirits 5 CD2
DYEAR=1900
DGENRE=Celtic
TTITLE0=Sinead O'Connor - My Special Child
TTITLE1=Voices Of Ireland - Lord Of The Dance
TTITLE2=Capercaillie - Servant To The Slave
TTITLE3=Dan Ar Braz - Broken Prayer
TTITLE4=Celtus - Strange Day In The Country
TTITLE5=Talitha MacKenzie - Ajde Jano
TTITLE6=Elysia - Spirit Of The Sun
TTITLE7=Relativity - An Seanduine Doite
TTITLE8=The Kells - James Connolly
TTITLE9=Garifin - Deep In The Country
TTITLE10=Pat Kilbride - Whiskey From The Field
TTITLE11=Nicci Berry - Down By The Glennside
TTITLE12=Capercaillie - Coisich, A Ruin
EXTD=
EXTT0=
EXTT1=
EXTT2=
EXTT3=
EXTT4=
EXTT5=
EXTT6=
EXTT7=
EXTT8=
EXTT9=
EXTT10=
EXTT11=
EXTT12=
PLAYORDER=
